<?xml version="1.0" encoding="utf-8"?>
<!-- Generator: Adobe Illustrator 27.5.0, SVG Export Plug-In . SVG Version: 6.00 Build 0)  -->
<svg version="1.1" xmlns="http://www.w3.org/2000/svg" xmlns:xlink="http://www.w3.org/1999/xlink" x="0px" y="0px"
	 viewBox="0 0 3710 3710" style="enable-background:new 0 0 3710 3710;" xml:space="preserve">
<g id="Background">
	<g>
		<g>
			<rect style="fill:none;" width="3710" height="3710"/>
		</g>
	</g>
</g>
<g id="Illustration">
	<g>
		<path style="fill:#F4F7FA;" d="M3213.822,1652.105c-75.893-496.755-387.054-1107.054-1001.787-1170.924
			c0,0-466.734-56.77-926.831,29.272c-273.068,51.065-512.508,203.078-664.016,421.557
			c-151.51,218.481-202.118,484.887-140.698,738.872c39.892,164.964,66.848,335.694,59.451,505.203
			c-9.329,213.78-26.898,438.556,67.607,637.914c138.471,292.088,476.329,378.127,771.132,405.569
			c108.637,10.112,217.676,14.188,326.409,22.785c208.59,16.491,442.511-10.196,643.553-64.503
			C3373.194,2901.088,3289.715,2148.858,3213.822,1652.105z"/>
		<g>
			
				<linearGradient id="SVGID_1_" gradientUnits="userSpaceOnUse" x1="2030.7513" y1="2963.3342" x2="2058.8225" y2="3468.6199" gradientTransform="matrix(1 0 0 1 585.7404 0)">
				<stop  offset="0" style="stop-color:#444B8C"/>
				<stop  offset="0.9964" style="stop-color:#26264F"/>
			</linearGradient>
			<path style="fill:url(#SVGID_1_);" d="M2686.811,3143.006c0,0,3.511,27.932,1.154,37.289
				c-2.357,9.358-83.571,16.121-111.138,12.868c-27.567-3.254,16.419-31.412,33.984-36.697
				C2628.375,3151.181,2686.811,3143.006,2686.811,3143.006z"/>
			
				<linearGradient id="SVGID_00000064332501922012296150000018161882829014804142_" gradientUnits="userSpaceOnUse" x1="-608.7359" y1="3125.3738" x2="-566.7009" y2="3125.3738" gradientTransform="matrix(-1 0 0 1 2079.229 0)">
				<stop  offset="0" style="stop-color:#311944"/>
				<stop  offset="1" style="stop-color:#A03976"/>
			</linearGradient>
			<path style="fill:url(#SVGID_00000064332501922012296150000018161882829014804142_);" d="M2645.93,3096.408l8.559,56.041
				c0,0,21.828,9.812,32.322,0.116l1.154-58.66L2645.93,3096.408z"/>
			
				<linearGradient id="SVGID_00000085249409601974153970000012659485088217649818_" gradientUnits="userSpaceOnUse" x1="2470.1243" y1="2935.1069" x2="2498.1953" y2="3440.3906" gradientTransform="matrix(1 0 0 1 585.7404 0)">
				<stop  offset="0" style="stop-color:#444B8C"/>
				<stop  offset="0.9964" style="stop-color:#26264F"/>
			</linearGradient>
			<path style="fill:url(#SVGID_00000085249409601974153970000012659485088217649818_);" d="M3035.035,3093.904
				c0,0-17.232,12.788-12.637,28.101c4.592,15.314,44.802,76.677,73.459,94.091c28.655,17.419,19.673-18.867,11.333-41.467
				c-8.339-22.598-29.647-72.381-37.966-80.726C3060.907,3085.561,3035.035,3093.904,3035.035,3093.904z"/>
			
				<linearGradient id="SVGID_00000177450479204967699110000008625320273846758805_" gradientUnits="userSpaceOnUse" x1="-1008.4102" y1="3099.4539" x2="-924.8099" y2="3099.4539" gradientTransform="matrix(-1 0 0 1 2079.229 0)">
				<stop  offset="0" style="stop-color:#311944"/>
				<stop  offset="1" style="stop-color:#A03976"/>
			</linearGradient>
			<path style="fill:url(#SVGID_00000177450479204967699110000008625320273846758805_);" d="M3004.039,3032.336
				c8.33,23.219,16.342,42.308,22.608,56.39c13.867,31.149,21.445,42.838,30.026,52.972c7.483,8.826,25.202,27.66,29.965,24.524
				c4.836-3.18-8.126-26.078-33.112-93.14c-3.628-9.734-15.087-40.746-15.087-40.746l0,0H3004.039z"/>
			
				<linearGradient id="SVGID_00000134972112202712064830000008350479753775179927_" gradientUnits="userSpaceOnUse" x1="-671.1796" y1="2590.3801" x2="-389.1731" y2="2590.3801" gradientTransform="matrix(-1 0 0 1 2079.229 0)">
				<stop  offset="0" style="stop-color:#444B8C"/>
				<stop  offset="0.9964" style="stop-color:#26264F"/>
			</linearGradient>
			<path style="fill:url(#SVGID_00000134972112202712064830000008350479753775179927_);" d="M2475.852,2062.117
				c-5.945,58.363-11.646,148.946-3.121,258.885c11.114,143.234,39.756,233.872,75.673,386.594
				c21.951,93.333,51.526,230.702,78.296,402.502c6.211,3.556,24.481,12.902,48.004,9.413c13.173-1.956,23.024-7.194,28.839-10.956
				c70.227-214.594,49.487-347.576,15.594-430.428c-14.446-35.319-31.961-63.18-41.322-117.468
				c-12.387-71.824,2.928-111.975,24.771-278.348c15.571-118.58,12.877-136.911,2.515-154.694
				C2663.696,2056.514,2537.041,2057.905,2475.852,2062.117z"/>
			
				<linearGradient id="SVGID_00000047749394856770070910000016618752125517445019_" gradientUnits="userSpaceOnUse" x1="-979.7829" y1="2581.7756" x2="-569.6297" y2="2581.7756" gradientTransform="matrix(-1 0 0 1 2079.229 0)">
				<stop  offset="0" style="stop-color:#444B8C"/>
				<stop  offset="0.9964" style="stop-color:#26264F"/>
			</linearGradient>
			<path style="fill:url(#SVGID_00000047749394856770070910000016618752125517445019_);" d="M2648.859,2087.072
				c43.021,222.178,85.245,338.868,117.198,404.87c7.881,16.277,34.172,68.791,59.027,144.077
				c22.004,66.641,31.173,115.666,35.868,137.242c14.832,68.102,51.491,167.541,150.126,297.966
				c1.23,0.721,18.05,10.233,34.128,1.755c8.138-4.296,12.196-11.139,13.805-14.329c-12.895-124.695-27.696-229.478-40.546-310.347
				c-2.696-16.961-14.57-91.17-33.188-189.21c-7.288-38.37-17.964-94.586-30.753-152.327
				c-15.923-71.906-40.344-169.727-77.977-286.946C2800.652,2108.904,2724.753,2097.994,2648.859,2087.072z"/>
			<g>
				
					<linearGradient id="SVGID_00000022518857472204077220000009717821909715944341_" gradientUnits="userSpaceOnUse" x1="2193.6082" y1="1658.9558" x2="2141.8975" y2="1422.0873">
					<stop  offset="0" style="stop-color:#311944"/>
					<stop  offset="1" style="stop-color:#893976"/>
				</linearGradient>
				<path style="fill:url(#SVGID_00000022518857472204077220000009717821909715944341_);" d="M2165.586,1400.565
					c-0.15-0.862,1.166-26.246-3.209-41.118c-4.374-14.873-11.956-43.452-16.622-55.7c-4.667-12.248-14.873-16.33-11.664,1.167
					c3.207,17.497,3.92,20.413,3.92,20.413s-26.083-53.804-47.518-58.616c-21.434-4.812-9.186,57.303,10.061,76.988
					c19.247,19.684,33.836,60.643,44.91,81.362C2156.539,1445.78,2171.126,1432.498,2165.586,1400.565z"/>
				
					<linearGradient id="SVGID_00000063615889713285517650000005270489329175449224_" gradientUnits="userSpaceOnUse" x1="2141.0149" y1="2348.5786" x2="692.8529" y2="4170.042" gradientTransform="matrix(0.9405 0.3398 -0.3398 0.9405 1265.1993 -1441.9843)">
					<stop  offset="0" style="stop-color:#FF9085"/>
					<stop  offset="1" style="stop-color:#FB6FBB"/>
				</linearGradient>
				<path style="fill:url(#SVGID_00000063615889713285517650000005270489329175449224_);" d="M2688.529,1537.55
					c10.738-14.893,18.261-30.258,21.396-45.888c0,0-27.255-9.938-66.588-9.413c-13.704,0.185-28.888,1.639-44.885,5.235
					c-28.238,6.376-59.041,19.396-88.864,43.859c-72.363,59.363-173.393,48.782-236.507,5.035
					c-16.792-14.178-32.376-30.988-46.247-50.008c-0.028-0.028-0.038-0.051-0.064-0.079c0.006-0.016-0.012-0.022-0.012-0.022
					c-22.06-30.238-39.825-66.087-51.332-105.87c-12.486,12.215-24.95,24.418-37.414,36.622
					c0.656,22.748,8.871,205.335,150.948,298.295c149.407,97.747,377.587,8.163,416.998-89.911
					C2721.653,1586.331,2710.477,1578.147,2688.529,1537.55z"/>
				
					<linearGradient id="SVGID_00000134223608449597750490000007415522103203227531_" gradientUnits="userSpaceOnUse" x1="3917.6274" y1="599.4875" x2="3383.8184" y2="1016.3544" gradientTransform="matrix(0.9587 -0.2845 0.2845 0.9587 -802.4934 1503.5477)">
					<stop  offset="0" style="stop-color:#444B8C"/>
					<stop  offset="0.9964" style="stop-color:#26264F"/>
				</linearGradient>
				<path style="fill:url(#SVGID_00000134223608449597750490000007415522103203227531_);" d="M3146.374,1177.954
					c-26.367-24.684-52.637-13.066-72.37-38.915c-12.841-16.821-8.614-28.872-15.473-49.257
					c-17.117-50.88-86.979-95.971-136.297-84.335c-53.642,12.657-41.582,82.651-108.085,108.939
					c-47.874,18.923-88.191-3.881-112.019,26.073c-12.242,15.39-4.495,25.055-20.819,54.035
					c-18.468,32.787-33.635,29.747-42.52,53.271c-11.024,29.188-1.242,69.809,21.837,92.153
					c19.79,19.16,37.428,13.332,49.976,34.313c11.05,18.477,1.941,30.635,11.042,49.006c13.348,26.945,49.376,36.672,60.629,36.684
					c56.885,0.06,104.554-38.429,162.599-37.862c31.269,0.306,62.604,4.693,93.711,1.521c25.819-2.632,69.604-12.458,81.191-40.943
					c12.271-30.162-23.598-54.571-10.371-83.419c12.281-26.787,48.841-18.029,60.923-45.232
					C3180.646,1230.759,3166.317,1196.626,3146.374,1177.954z"/>
				
					<linearGradient id="SVGID_00000098193295877115353220000007807049288706267561_" gradientUnits="userSpaceOnUse" x1="3153.7271" y1="1489.6058" x2="1477.6782" y2="3597.7">
					<stop  offset="0" style="stop-color:#FF9085"/>
					<stop  offset="1" style="stop-color:#FB6FBB"/>
				</linearGradient>
				<path style="fill:url(#SVGID_00000098193295877115353220000007807049288706267561_);" d="M2981.819,2360.374
					c-52.405,21.469-99.787,19.51-133.102,17.777c-26.299-1.364-42.675-4.812-60.926-10.096
					c-23.708-6.911-50.619-16.92-106.644-29.535c-74.223-16.693-116.199-26.141-173.87-25.967
					c-79.893,0.298-107.801,18.757-124.353,0.438c-21.749-24.111,18.355-72.315,55.484-187.307
					c25.791-79.892,13.403-77.477,40.052-170.177c34.889-121.361,59.928-138.806,82.515-224.332
					c13.35-50.533,26.509-127.432,16.605-229.283c28.766-11.443,127.606-46.596,246.974-10.639c4.514,1.364,8.94,2.782,13.297,4.269
					c0.053,0.017,0.123,0.035,0.176,0.052c4.443,1.54,8.8,3.132,13.07,4.777c0.297,0.123,0.367,0.245,0.682,0.368
					c39.632,16.569,146.703,75.377,84.24,215.88c-4.567,10.271-10.256,20.962-13.677,32.107v0.018
					c-58.141,74.871-63.12,125.21-52.008,159.977c11.705,36.656,39.574,52.527,62.898,124.738
					c23.15,71.615,5.624,92.472,30.838,126.032c45.196,60.173,130.165,34.277,142.413,72.911
					C3118.538,2270.333,3047.994,2333.236,2981.819,2360.374z"/>
				
					<linearGradient id="SVGID_00000148651218518768950290000011694407548490117766_" gradientUnits="userSpaceOnUse" x1="-2746.3633" y1="1050.4487" x2="-2873.7305" y2="1292.8329" gradientTransform="matrix(-0.9895 -0.145 -0.145 0.9895 140.7898 -128.0295)">
					<stop  offset="0" style="stop-color:#311944"/>
					<stop  offset="1" style="stop-color:#893976"/>
				</linearGradient>
				<path style="fill:url(#SVGID_00000148651218518768950290000011694407548490117766_);" d="M2798.462,1402.975
					c-5.665,10.552-14.629,34.355-5.883,58.288c7.656,20.956,25.909,32.342,33.196,36.983c17.613,11.216,29.322,10.35,29.308,13.985
					c-0.027,8.047-57.498,25.618-111.451,6.299c-31.71-11.353-59.905-34.626-56.311-44.832c4.034-11.452,44.809,2.893,62.612-17.827
					c11.376-13.241,8.346-34.953,3.222-52.735C2765.271,1395.632,2786.314,1410.492,2798.462,1402.975z"/>
				<g>
					
						<linearGradient id="SVGID_00000052820079547967556040000005334879911025648829_" gradientUnits="userSpaceOnUse" x1="-2305.3357" y1="126.91" x2="-2567.7227" y2="19.57" gradientTransform="matrix(-0.9859 -0.1676 -0.1676 0.9859 115.6155 964.5583)">
						<stop  offset="0" style="stop-color:#311944"/>
						<stop  offset="1" style="stop-color:#893976"/>
					</linearGradient>
					<path style="fill:url(#SVGID_00000052820079547967556040000005334879911025648829_);" d="M2826.887,1443.042
						c0,0-41.277,36.501-90.544,13.414c-44.024-20.632-12.015-135.584,25-148.428c12.356-4.283,32.78-0.233,46.797,10.626
						c8.286,6.422,9.963,11.892,23.703,22.087c12.685,9.419,17.251,9.208,20.143,14.792c3.615,6.989,3.343,20.633-16.828,50.181
						c11.978-6.395,23.641-6.149,29.683,0.519c0.962,1.068,3.273,4.607,3.807,8.836
						C2870.579,1430.383,2854.324,1442.767,2826.887,1443.042z"/>
				</g>
				<g style="opacity:0.3;">
					
						<linearGradient id="SVGID_00000095325390296630809590000016706970659903276467_" gradientUnits="userSpaceOnUse" x1="3089.7278" y1="2144.4854" x2="3076.5776" y2="2188.6323">
						<stop  offset="0" style="stop-color:#FF9085"/>
						<stop  offset="1" style="stop-color:#FB6FBB"/>
					</linearGradient>
					<path style="opacity:0.6;fill:url(#SVGID_00000095325390296630809590000016706970659903276467_);" d="M3088.849,2150.093
						c2.134,2.379,4.147,4.707,6.071,6.999C3089.304,2157.214,3071.072,2130.251,3088.849,2150.093z"/>
					
						<linearGradient id="SVGID_00000135675747769292528530000000726604012365796267_" gradientUnits="userSpaceOnUse" x1="3017.6328" y1="1687.6519" x2="2135.7935" y2="4648.1201">
						<stop  offset="0" style="stop-color:#FF9085"/>
						<stop  offset="1" style="stop-color:#FB6FBB"/>
					</linearGradient>
					<path style="opacity:0.6;fill:url(#SVGID_00000135675747769292528530000000726604012365796267_);" d="M2981.819,2360.374
						c-52.405,21.469-99.787,19.51-133.102,17.777c-26.299-1.364-42.675-4.812-60.926-10.096c3.762-7.104,5.389-11.951,2.765-12.44
						c17.357-45.581,13.613-80.207,2.608-106.453c-33.699-80.365-143.792-103.094-140.712-162.934
						c2.257-43.778,61.677-41.469,93.453-100.557c47.784-88.833-49.079-163.721-3.098-222.931
						c28.993-37.34,79.043-18.792,193.213-46.14c-4.567,10.271-10.256,20.962-13.677,32.107v0.018
						c-58.141,74.871-63.12,125.21-52.008,159.977c11.705,36.656,39.574,52.527,62.898,124.738
						c23.15,71.615,5.624,92.472,30.838,126.032c45.196,60.173,130.165,34.277,142.413,72.911
						C3118.538,2270.333,3047.994,2333.236,2981.819,2360.374z"/>
				</g>
				
					<linearGradient id="SVGID_00000080907306524877203420000011138576775692615583_" gradientUnits="userSpaceOnUse" x1="2125.6411" y1="1937.0426" x2="2175.5178" y2="2326.8167" gradientTransform="matrix(1 0 0 1 845.8701 0)">
					<stop  offset="0" style="stop-color:#FF9085"/>
					<stop  offset="1" style="stop-color:#FB6FBB"/>
				</linearGradient>
				<path style="fill:url(#SVGID_00000080907306524877203420000011138576775692615583_);" d="M2788.604,1822.976
					c-21.408,41.197,53.5,160.589,157.809,170.784c56.535,5.526,112.321-21.94,145.747-63.436
					c51.588-64.042,35.631-143.773,30.046-171.685c-32.961-164.692-226.595-233.244-244.348-239.241
					c-47.111,73.009-46.357,119.058-36.412,147.881c8.201,23.769,29.664,49.161,72.59,99.946
					c38.228,45.225,57.181,61.334,51.506,75.112c-6.741,16.362-43.342,17.59-66.528,12.876c-42.96-8.737-66.49-43.295-72.637-52.988
					C2814.587,1804.102,2795.962,1808.817,2788.604,1822.976z"/>
				
					<linearGradient id="SVGID_00000134934168106786872030000010293356839493399969_" gradientUnits="userSpaceOnUse" x1="1203.0204" y1="1924.8708" x2="1241.2169" y2="1729.9712" gradientTransform="matrix(-1 0 0 1 4015.1333 0)">
					<stop  offset="0" style="stop-color:#311944"/>
					<stop  offset="1" style="stop-color:#A03976"/>
				</linearGradient>
				<path style="fill:url(#SVGID_00000134934168106786872030000010293356839493399969_);" d="M2849.263,1830.106
					c0,0-12.083-64.442-59.407-53.87c-47.325,10.573-72,36.249-44.307,43.297c27.693,7.048,60.921,9.062,67.466,21.145
					S2854.897,1859.6,2849.263,1830.106z"/>
			</g>
		</g>
		<g>
			<g>
				<path style="fill:#AABBCC;" d="M1591.757,3200.866c113.34-14.562,257.044-52.824,314.759-160.712
					c13.731-25.667,27.508-75.527-7.147-94.303c-31.678-17.163-72.643,0.965-96.188,23.3c-17.311,16.421-30.82,53.072-50.271,64.662
					c-28.468,16.963-43.795-29.322-43.196-48.423c1.339-42.708,53.874-60.192,88.788-69.466
					c57.953-15.393,125.429-28.588,121.798-93.897c-3.631-65.309-67.307-104.482-116.294-75.913
					c-40.36,23.544-34.678,73.793-62.256,103.942c-24.5,26.784-33.025-16.69-31.39-38.003c3.554-46.296,44.26-79.781,74.211-110.804
					c33.864-35.076,71.277-105.646,35.181-152.024c-20.771-26.688-73.538-32.939-104.726-28.436
					c-152.66,22.042-51.431,219.602-79.187,241.644c-27.756,22.042-54.018-16.543-53.949-75.213s-8.911-101.938-70.138-83.161
					c-61.227,18.776-72.882,172.023-2.97,230.917s-4.388,123.148-23.157,80.942c-13.55-30.475-25.462-110.284-64.622-119.037
					c-65.251-14.559-64.284,118.679-45.505,149.688c26.325,43.469,85.848,52.913,119.09,90.417
					c9.657,10.895,31.459,37.878,22.99,53.803c-11.812,22.21-44.767-1.55-56.875-11.844
					c-27.221-23.142-64.896-101.789-103.244-49.56C1310.112,3093.877,1389.299,3189.482,1591.757,3200.866z"/>
				<g style="opacity:0.8;">
					<path style="fill:#FFFFFF;" d="M1608.083,3188.719c-2.663,0-4.846-1.773-4.895-4.447
						c-0.045-2.314-3.198-234.467,98.262-510.787c0.934-2.538,3.752-3.75,6.287-2.819c2.54,0.932,3.843,3.791,2.91,6.331
						c-100.835,274.614-97.708,504.772-97.666,507.068c0.051,2.705-2.1,4.654-4.804,4.654
						C1608.145,3188.719,1608.113,3188.719,1608.083,3188.719z"/>
				</g>
			</g>
			<path style="fill:#D8DEE8;" d="M1649.767,3101.47c-18.372-15.632-57.406,8.814-73.608,18.115
				c-9.396,5.394-22.256,13.669-33.563,8.867c-11.875-5.044-11.039-17.509-3.859-26.342c12.856-15.815,37.526-20.16,55.454-27.868
				c19.258-8.279,36.942-19.552,46.438-38.989c7.572-15.497,9.301-38.406,0.777-53.669c-23.59-42.24-57.932-9.278-77.134,15.917
				c-9.317,12.226-30.186,33.286-46.004,18.871c-16.828-15.336-2.387-42.68,10.669-54.736
				c17.062-15.757,37.715-26.708,56.296-40.406c16.754-12.35,33.96-30.045,22.807-51.94c-8.616-16.915-30.304-26.277-48.822-24.843
				c-42.815,3.315-49.488,65.826-77.685,89.828c-9.969,8.486-32.632,15.233-44.524,6.906c-12.101-8.493-4.236-27.915,0.119-38.513
				c12.908-31.413,105.53-136.73,28.768-149.954c-19.32-3.328-45.946,2.754-61.127,15.037
				c-28.64,23.173-43.838,69.069-51.381,103.898c-11.866,54.785-11.193,115.636,2.052,170.123
				c29.275,120.418,98.079,159.096,98.079,159.096c29.757,9.795,66.968,14.624,97.816,8.094
				c36.262-7.676,79.63-34.519,97.563-68.009C1654.7,3130.116,1661.148,3111.153,1649.767,3101.47z"/>
		</g>
		<g>
			
				<linearGradient id="SVGID_00000109030006796490119010000005142727187503524026_" gradientUnits="userSpaceOnUse" x1="-2158.3855" y1="1567.9358" x2="-2287.0942" y2="1241.0391" gradientTransform="matrix(1 0 0 1 3270.0103 0)">
				<stop  offset="0" style="stop-color:#311944"/>
				<stop  offset="1" style="stop-color:#6B3976"/>
			</linearGradient>
			<path style="fill:url(#SVGID_00000109030006796490119010000005142727187503524026_);" d="M958.802,1436.875
				c0,0-122.905-50.756-89.527-106.814c33.378-56.057,41.89-31.01,41.89-31.01s-61.623-33.396,23.375-62.617
				c84.998-29.221,103.416,6.56,156.825-13.716s91.482,64.957,46.814,88.857c-44.668,23.9-86.437,36.974-86.437,36.974
				S986.922,1486.439,958.802,1436.875z"/>
			
				<linearGradient id="SVGID_00000019668967360226222870000013114181693588379327_" gradientUnits="userSpaceOnUse" x1="3701.5994" y1="2964.5334" x2="3728.2959" y2="3445.0767" gradientTransform="matrix(-1 0 0 1 4763.499 0)">
				<stop  offset="0" style="stop-color:#444B8C"/>
				<stop  offset="0.9964" style="stop-color:#26264F"/>
			</linearGradient>
			<path style="fill:url(#SVGID_00000019668967360226222870000013114181693588379327_);" d="M995.024,3135.407
				c0,0-3.339,26.564-1.098,35.463c2.242,8.9,79.479,15.332,105.696,12.238c26.217-3.095-15.616-29.874-32.32-34.9
				C1050.598,3143.182,995.024,3135.407,995.024,3135.407z"/>
			
				<linearGradient id="SVGID_00000008855867302627184970000005968547379610376848_" gradientUnits="userSpaceOnUse" x1="-2276.0842" y1="3118.6382" x2="-2236.1074" y2="3118.6382" gradientTransform="matrix(1 0 0 1 3270.0103 0)">
				<stop  offset="0" style="stop-color:#FFC444"/>
				<stop  offset="0.9964" style="stop-color:#F36F56"/>
			</linearGradient>
			<path style="fill:url(#SVGID_00000008855867302627184970000005968547379610376848_);" d="M1033.903,3091.09l-8.14,53.297
				c0,0-20.76,9.331-30.739,0.11l-1.098-55.788L1033.903,3091.09z"/>
			
				<linearGradient id="SVGID_00000034797388168962660800000001465179595255582359_" gradientUnits="userSpaceOnUse" x1="-2335.4705" y1="2609.8408" x2="-2067.2725" y2="2609.8408" gradientTransform="matrix(1 0 0 1 3270.0103 0)">
				<stop  offset="0" style="stop-color:#444B8C"/>
				<stop  offset="0.9964" style="stop-color:#26264F"/>
			</linearGradient>
			<path style="fill:url(#SVGID_00000034797388168962660800000001465179595255582359_);" d="M1195.653,2107.445
				c5.654,55.505,11.075,141.652,2.969,246.208c-10.57,136.221-37.809,222.42-71.968,367.664
				c-20.876,88.763-49.003,219.406-74.462,382.793c-5.906,3.382-23.283,12.27-45.653,8.952c-12.528-1.86-21.896-6.841-27.427-10.42
				c-66.788-204.086-47.064-330.556-14.831-409.352c13.739-33.59,30.396-60.087,39.298-111.716
				c11.781-68.307-2.785-106.492-23.558-264.718c-14.809-112.774-12.246-130.208-2.392-147.12
				C1017.007,2102.116,1137.46,2103.439,1195.653,2107.445z"/>
			
				<linearGradient id="SVGID_00000145059099979107399480000006203092714396000135_" gradientUnits="userSpaceOnUse" x1="3919.0254" y1="2964.5334" x2="3945.7219" y2="3445.0767" gradientTransform="matrix(-1 0 0 1 4763.499 0)">
				<stop  offset="0" style="stop-color:#444B8C"/>
				<stop  offset="0.9964" style="stop-color:#26264F"/>
			</linearGradient>
			<path style="fill:url(#SVGID_00000145059099979107399480000006203092714396000135_);" d="M777.598,3135.407
				c0,0-3.339,26.564-1.098,35.463c2.242,8.9,79.479,15.332,105.696,12.238c26.217-3.095-15.615-29.874-32.32-34.9
				S777.598,3135.407,777.598,3135.407z"/>
			
				<linearGradient id="SVGID_00000138533677827963386450000010801985120949145274_" gradientUnits="userSpaceOnUse" x1="-2493.5103" y1="3118.6382" x2="-2453.5334" y2="3118.6382" gradientTransform="matrix(1 0 0 1 3270.0103 0)">
				<stop  offset="0" style="stop-color:#FFC444"/>
				<stop  offset="0.9964" style="stop-color:#F36F56"/>
			</linearGradient>
			<path style="fill:url(#SVGID_00000138533677827963386450000010801985120949145274_);" d="M816.477,3091.09l-8.14,53.297
				c0,0-20.76,9.331-30.739,0.11l-1.098-55.788L816.477,3091.09z"/>
			
				<linearGradient id="SVGID_00000183217109806528745810000015867723944015786154_" gradientUnits="userSpaceOnUse" x1="-2552.8962" y1="2609.8408" x2="-2180.2344" y2="2609.8408" gradientTransform="matrix(1 0 0 1 3270.0103 0)">
				<stop  offset="0" style="stop-color:#444B8C"/>
				<stop  offset="0.9964" style="stop-color:#26264F"/>
			</linearGradient>
			<path style="fill:url(#SVGID_00000183217109806528745810000015867723944015786154_);" d="M978.227,2107.445
				c5.654,55.505,119.242,23.336,111.135,127.893c-10.57,136.221-127.656,345.219-161.815,490.463
				c-20.876,88.763-67.323,214.923-92.781,378.31c-5.906,3.382-23.283,12.27-45.653,8.952c-12.528-1.86-21.896-6.841-27.427-10.42
				c-66.788-204.086-47.064-330.556-14.831-409.352c13.739-33.59,30.396-60.087,39.298-111.716
				c11.781-68.307-2.785-106.492-23.558-264.718c-14.809-112.774-12.246-130.208-2.392-147.12
				C799.581,2102.116,920.034,2103.439,978.227,2107.445z"/>
			
				<linearGradient id="SVGID_00000039823378495432485580000002641044797703504300_" gradientUnits="userSpaceOnUse" x1="1077.8353" y1="1675.3169" x2="1021.0831" y2="3491.4011">
				<stop  offset="0" style="stop-color:#FFC444"/>
				<stop  offset="0.9964" style="stop-color:#F36F56"/>
			</linearGradient>
			<path style="fill:url(#SVGID_00000039823378495432485580000002641044797703504300_);" d="M1513.294,2003.227
				c-36.078,42.498-119.117,49.373-173.859,20.371c-73.205-38.735-88.76-137.63-113.144-132.061
				c-2.609,0.603-13.899,4.366-18.414,51.63c-10.738,113.948,48.568,160.109,33.969,221.875
				c-8.531,36.076-38.286,60.863-76.87,81.384c-24.887,13.247-53.436,24.786-82.287,36.377
				c-49.171,19.769-201.353,80.984-289.811,12.142c-37.281-28.951-41.345-63.922-67.888-192.522
				c-27.797-134.62-55.494-219.667-76.466-278.072c-30.005-83.34-46.263-112.492-29.603-154.088
				c48.769-121.424,220.068-165.076,241.794-173.455c231.558-89.212,505.062,74.76,613.091,263.169
				C1488.054,1784.764,1573.002,1932.932,1513.294,2003.227z"/>
			
				<linearGradient id="SVGID_00000093144131655422760980000013045667526956154496_" gradientUnits="userSpaceOnUse" x1="9705.9658" y1="1900.4176" x2="9873.6992" y2="1900.4176" gradientTransform="matrix(-1 0 0 1 11190.5664 0)">
				<stop  offset="0" style="stop-color:#FFC444"/>
				<stop  offset="0.9964" style="stop-color:#F36F56"/>
			</linearGradient>
			<path style="fill:url(#SVGID_00000093144131655422760980000013045667526956154496_);" d="M1479.384,1977.982
				c0.724,0,1.458-0.153,2.162-0.474c2.62-1.193,3.777-4.289,2.586-6.914c-1.986-4.344-49.787-106.934-160.249-147.416
				c-2.712-1.003-5.705,0.393-6.694,3.106c-0.994,2.706,0.397,5.704,3.106,6.694c106.25,38.941,153.864,140.925,154.332,141.948
				C1475.505,1976.85,1477.401,1977.982,1479.384,1977.982z"/>
			
				<linearGradient id="SVGID_00000130634474721796989030000004428459613923541645_" gradientUnits="userSpaceOnUse" x1="648.5232" y1="2009.7772" x2="1164.9752" y2="2009.7772">
				<stop  offset="0" style="stop-color:#FFC444"/>
				<stop  offset="0.9964" style="stop-color:#F36F56"/>
			</linearGradient>
			<path style="opacity:0.3;fill:url(#SVGID_00000130634474721796989030000004428459613923541645_);" d="M1090.614,2131.177
				c-26.294-6.015-48.607,0.723-74.351,4.281c-74.767,10.334-41.244-63.98-23.782-103.402
				c17.197-38.825,43.57-91.782,17.945-132.754c-38.283-61.213-182.828,14.311-209.773-47.604
				c-18.767-43.201,25.088-77.671,10.486-117.461c-3.557-9.65-10.38-19.161-22.233-27.812
				c-15.405-11.245-34.694-15.822-53.515-12.729c-18.821,3.093-35.615,13.603-46.618,29.184
				c-11.265,15.955-21.217,33.629-29.061,53.153c-6.826,17.01-10.486,31.51-11.189,48.318
				c20.972,58.405,48.669,143.451,76.466,278.072c26.543,128.6,30.607,163.571,67.888,192.522
				c88.458,68.842,240.64,7.627,289.811-12.142c28.851-11.591,57.4-23.13,82.287-36.377
				C1140.341,2229.116,1145.456,2143.722,1090.614,2131.177z"/>
			
				<linearGradient id="SVGID_00000075120905412251762620000006034931581661076363_" gradientUnits="userSpaceOnUse" x1="871.876" y1="1723.6034" x2="1007.2815" y2="1466.5624">
				<stop  offset="0" style="stop-color:#FFC444"/>
				<stop  offset="0.9964" style="stop-color:#F36F56"/>
			</linearGradient>
			<path style="fill:url(#SVGID_00000075120905412251762620000006034931581661076363_);" d="M1133.852,1508.82
				c-14.723-6.385-47.756-11.606-74.778-15.036c-22.307-2.831-22.571-41.518-18.831-63.692l6.311-14.917l-51.842-39.524
				c0,0-43.65,93.342-83.288,102.858c-32.018,7.685-58.794,23.42-81.574,33.732c-6.217,2.814-4.671,12.056,2.136,12.602
				c25.348,2.029,70.202,3.76,129.395-1.409C1056.198,1515.156,1160.877,1520.542,1133.852,1508.82z"/>
			
				<linearGradient id="SVGID_00000079465650209108170000000000437391807084226180_" gradientUnits="userSpaceOnUse" x1="-2269.7876" y1="967.2333" x2="-2245.9331" y2="1954.797" gradientTransform="matrix(1 0 0 1 3270.0103 0)">
				<stop  offset="0" style="stop-color:#FFC444"/>
				<stop  offset="0.9964" style="stop-color:#F36F56"/>
			</linearGradient>
			<path style="fill:url(#SVGID_00000079465650209108170000000000437391807084226180_);" d="M962.902,1425.967
				c0,0,40.439,45.934,102.176,30.869c55.279-13.493,41.378-140.335,0.972-160.656c-13.477-6.778-37.992-6.26-56.439,2.596
				c-10.895,5.23-13.936,10.676-31.904,18.879c-16.573,7.562-21.823,6.502-26.284,11.839c-5.588,6.673-8.006,21.051,9.401,55.782
				c-12.57-8.925-26.109-10.813-34.424-4.932c-1.328,0.939-4.71,4.227-6.171,8.565
				C914.935,1404.61,931.236,1420.598,962.902,1425.967z"/>
			
				<linearGradient id="SVGID_00000135648784129275231900000010803801791340773766_" gradientUnits="userSpaceOnUse" x1="9524.915" y1="2348.0488" x2="10020.7578" y2="1650.7712" gradientTransform="matrix(-1 0 0 1 11190.5664 0)">
				<stop  offset="0" style="stop-color:#FFC444"/>
				<stop  offset="0.9964" style="stop-color:#F36F56"/>
			</linearGradient>
			<path style="fill:url(#SVGID_00000135648784129275231900000010803801791340773766_);" d="M1340.539,1843.61l-4.607-7.532
				c-4.074-15.645-19.103-25.854-35.149-23.876l-24.203,2.985c-7.574,0.934-12.699,8.139-11.141,15.61
				c2.252,10.803,8.047,23.728,22.918,22.724c25.261-1.704,41.41,35.11,41.41,35.11l9.696-13.656
				C1346.066,1865.679,1346.488,1853.338,1340.539,1843.61z"/>
			
				<linearGradient id="SVGID_00000039130726051476525150000018193411916758951586_" gradientUnits="userSpaceOnUse" x1="-4288.2056" y1="2453.6421" x2="-3792.3628" y2="1756.3644" gradientTransform="matrix(1 0 0 1 4881.6792 0)">
				<stop  offset="0" style="stop-color:#FFC444"/>
				<stop  offset="0.7246" style="stop-color:#F68651"/>
				<stop  offset="0.9964" style="stop-color:#F36F56"/>
			</linearGradient>
			<path style="fill:url(#SVGID_00000039130726051476525150000018193411916758951586_);" d="M951.288,1893.846l5.52-9.026
				c4.882-18.747,22.89-30.98,42.119-28.61l29.002,3.577c9.076,1.119,15.217,9.753,13.349,18.705
				c-2.699,12.945-9.642,28.432-27.462,27.23c-30.27-2.042-49.621,42.072-49.621,42.072l-11.618-16.364
				C944.666,1920.29,944.16,1905.503,951.288,1893.846z"/>
			
				<linearGradient id="SVGID_00000040564352122399186180000000316734678652073623_" gradientUnits="userSpaceOnUse" x1="10460.6533" y1="1694.0068" x2="10406.1318" y2="3438.6799" gradientTransform="matrix(-1 0 0 1 11190.5664 0)">
				<stop  offset="0" style="stop-color:#FFC444"/>
				<stop  offset="0.9964" style="stop-color:#F36F56"/>
			</linearGradient>
			<path style="fill:url(#SVGID_00000040564352122399186180000000316734678652073623_);" d="M951.106,1884.768
				c-6.248,5.682-69.6,61.482-145.807,42.428c-66.369-16.595-107.117-81.122-114.256-135.417
				c-16.976-129.128,113.42-212.346,92.682-238.479c-12.349-15.562-40.75-10.59-84.851,16.596
				c-45.779,28.22-169.487,104.478-195.853,254.125c-2.243,12.72-31.332,191.132,70.519,264.819
				c94.172,68.129,278.633,31.069,403.561-130.084C968.437,1934.093,959.772,1909.43,951.106,1884.768z"/>
		</g>
		<g>
			<g>
				<g>
					
						<linearGradient id="SVGID_00000005242295010404666220000010867393900162339256_" gradientUnits="userSpaceOnUse" x1="4922.3809" y1="1518.731" x2="4914.479" y2="1574.1622" gradientTransform="matrix(-1 0 0 1 6122.8315 0)">
						<stop  offset="0" style="stop-color:#444B8C"/>
						<stop  offset="0.9964" style="stop-color:#3E4177"/>
					</linearGradient>
					<path style="fill:url(#SVGID_00000005242295010404666220000010867393900162339256_);" d="M1166.497,1544.153
						c1.611,4.686,5.272,8.615,10.276,10.421l43.588,15.839c8.859,3.222,18.67-1.342,21.891-10.201
						c0.708-1.928,1.026-3.905,1.026-5.833c0-2.806-0.708-5.54-2.002-7.981c-1.903-3.636-5.1-6.565-9.25-8.078l-43.588-15.839
						c-8.859-3.222-18.67,1.342-21.891,10.201C1165.155,1536.538,1165.229,1540.565,1166.497,1544.153z"/>
					
						<linearGradient id="SVGID_00000165201079732782788520000011278108166674972293_" gradientUnits="userSpaceOnUse" x1="4919.3403" y1="1538.8794" x2="4914.314" y2="1574.1387" gradientTransform="matrix(-1 0 0 1 6122.8315 0)">
						<stop  offset="0" style="stop-color:#444B8C"/>
						<stop  offset="0.9964" style="stop-color:#3E4177"/>
					</linearGradient>
					<path style="opacity:0.2;fill:url(#SVGID_00000165201079732782788520000011278108166674972293_);" d="M1166.497,1544.153
						c1.611,4.686,5.272,8.615,10.276,10.421l43.588,15.839c8.859,3.222,18.67-1.342,21.891-10.201
						c0.708-1.928,1.026-3.905,1.026-5.833c0-2.806-0.708-5.54-2.002-7.981c-0.976-0.708-13.765-9.64-22.307,2.783
						c-8.883,12.934-14.155,9.664-17.425,7.345C1198.908,1554.623,1177.529,1552.402,1166.497,1544.153z"/>
				</g>
				<g>
					
						<linearGradient id="SVGID_00000137816479986302208160000000761808210233082300_" gradientUnits="userSpaceOnUse" x1="4825.7241" y1="1539.382" x2="4789.0493" y2="1796.6541" gradientTransform="matrix(-1 0 0 1 6122.8315 0)">
						<stop  offset="0" style="stop-color:#AA80F9"/>
						<stop  offset="0.9964" style="stop-color:#6165D7"/>
					</linearGradient>
					<path style="fill:url(#SVGID_00000137816479986302208160000000761808210233082300_);" d="M1402.088,1786.844
						c1,0,2.015-0.206,2.987-0.641c3.691-1.652,5.344-5.982,3.692-9.674l-75.941-169.698c-6.41-14.324-18.013-25.296-32.672-30.895
						l-68.736-26.259c-3.78-1.443-8.01,0.449-9.452,4.226c-1.443,3.778,0.449,8.01,4.226,9.452l68.736,26.259
						c11.008,4.205,19.72,12.445,24.533,23.199l75.941,169.698C1396.618,1785.23,1399.289,1786.844,1402.088,1786.844z"/>
				</g>
			</g>
			<g>
				<g>
					
						<linearGradient id="SVGID_00000100353143633031015330000000227649442638637481_" gradientUnits="userSpaceOnUse" x1="4739.3394" y1="1518.731" x2="4731.4375" y2="1574.1622" gradientTransform="matrix(-1 0 0 1 6122.8315 0)">
						<stop  offset="0" style="stop-color:#444B8C"/>
						<stop  offset="0.9964" style="stop-color:#3E4177"/>
					</linearGradient>
					<path style="fill:url(#SVGID_00000100353143633031015330000000227649442638637481_);" d="M1349.538,1544.153
						c1.611,4.686,5.272,8.615,10.276,10.421l43.588,15.839c8.859,3.222,18.67-1.342,21.891-10.201
						c0.708-1.928,1.026-3.905,1.026-5.833c0-2.806-0.708-5.54-2.002-7.981c-1.903-3.636-5.1-6.565-9.25-8.078l-43.588-15.839
						c-8.859-3.222-18.67,1.342-21.891,10.201C1348.196,1536.538,1348.27,1540.565,1349.538,1544.153z"/>
					
						<linearGradient id="SVGID_00000070100072594059505970000007488506473063697052_" gradientUnits="userSpaceOnUse" x1="4736.2988" y1="1538.8794" x2="4731.2725" y2="1574.1387" gradientTransform="matrix(-1 0 0 1 6122.8315 0)">
						<stop  offset="0" style="stop-color:#444B8C"/>
						<stop  offset="0.9964" style="stop-color:#3E4177"/>
					</linearGradient>
					<path style="opacity:0.2;fill:url(#SVGID_00000070100072594059505970000007488506473063697052_);" d="M1349.538,1544.153
						c1.611,4.686,5.272,8.615,10.276,10.421l43.588,15.839c8.859,3.222,18.67-1.342,21.891-10.201
						c0.708-1.928,1.026-3.905,1.026-5.833c0-2.806-0.708-5.54-2.002-7.981c-0.976-0.708-13.765-9.64-22.307,2.783
						c-8.883,12.934-14.155,9.664-17.425,7.345C1381.949,1554.623,1360.571,1552.402,1349.538,1544.153z"/>
				</g>
				<g>
					
						<linearGradient id="SVGID_00000109739487311454156730000016429417178849151389_" gradientUnits="userSpaceOnUse" x1="4642.6826" y1="1539.3821" x2="4606.0078" y2="1796.6541" gradientTransform="matrix(-1 0 0 1 6122.8315 0)">
						<stop  offset="0" style="stop-color:#AA80F9"/>
						<stop  offset="0.9964" style="stop-color:#6165D7"/>
					</linearGradient>
					<path style="fill:url(#SVGID_00000109739487311454156730000016429417178849151389_);" d="M1585.129,1786.844
						c1,0,2.015-0.206,2.988-0.641c3.691-1.652,5.344-5.982,3.692-9.674l-75.941-169.698c-6.41-14.324-18.013-25.296-32.672-30.895
						l-68.736-26.259c-3.78-1.443-8.01,0.449-9.452,4.226c-1.443,3.778,0.449,8.01,4.226,9.452l68.736,26.259
						c11.007,4.205,19.72,12.445,24.533,23.199l75.941,169.698C1579.659,1785.23,1582.331,1786.844,1585.129,1786.844z"/>
				</g>
			</g>
			<g>
				<g>
					
						<linearGradient id="SVGID_00000039114118834132813020000018311591434827394178_" gradientUnits="userSpaceOnUse" x1="-5289.5962" y1="2010.7758" x2="-5456.4771" y2="1823.6669" gradientTransform="matrix(1 0 0 1 6838.3872 0)">
						<stop  offset="0" style="stop-color:#AA80F9"/>
						<stop  offset="0.9964" style="stop-color:#6165D7"/>
					</linearGradient>
					<polygon style="fill:url(#SVGID_00000039114118834132813020000018311591434827394178_);" points="1717.069,2047.612 
						1066.318,2052.261 1050.493,2041.17 1144.56,1716.038 1811.136,1722.479 1826.96,1733.57 					"/>
					
						<linearGradient id="SVGID_00000003794858968769998050000005027572811096927881_" gradientUnits="userSpaceOnUse" x1="-5438.2778" y1="1951.3741" x2="-4722.5933" y2="1951.3741" gradientTransform="matrix(1.0584 0.0102 -0.0097 1 6842.6997 -6.6378)">
						<stop  offset="0" style="stop-color:#AA80F9"/>
						<stop  offset="0.9964" style="stop-color:#6165D7"/>
					</linearGradient>
					<polygon style="fill:url(#SVGID_00000003794858968769998050000005027572811096927881_);" points="1732.893,2058.703 
						1066.318,2052.261 1160.385,1727.129 1826.96,1733.57 					"/>
					
						<linearGradient id="SVGID_00000083801928317906664050000000920203316281370779_" gradientUnits="userSpaceOnUse" x1="-5605.2388" y1="2414.4202" x2="-4796.9951" y2="2887.5374" gradientTransform="matrix(1 0 0 1 6838.3872 0)">
						<stop  offset="0" style="stop-color:#AA80F9"/>
						<stop  offset="0.9964" style="stop-color:#6165D7"/>
					</linearGradient>
					<path style="fill:url(#SVGID_00000083801928317906664050000000920203316281370779_);" d="M1475.575,3193.045
						c0,0,75.22-931.177,196.534-1306.814h-342.829l-107.266,1306.814H1475.575z"/>
					
						<linearGradient id="SVGID_00000109751744498135031010000008412265845729558666_" gradientUnits="userSpaceOnUse" x1="-5630.8062" y1="2542.866" x2="-5509.1069" y2="2542.866" gradientTransform="matrix(1 0 0 1 6838.3872 0)">
						<stop  offset="0" style="stop-color:#AA80F9"/>
						<stop  offset="0.9964" style="stop-color:#6165D7"/>
					</linearGradient>
					<polygon style="fill:url(#SVGID_00000109751744498135031010000008412265845729558666_);" points="1207.581,2015.923 
						1329.281,1886.23 1307.452,3178.643 1311.636,3199.502 1222.015,3193.045 					"/>
					
						<linearGradient id="SVGID_00000020375039453835693080000003504471602233558715_" gradientUnits="userSpaceOnUse" x1="-5595.7178" y1="3369.1711" x2="-5500.2544" y2="3206.0156" gradientTransform="matrix(1 0 0 1 6838.3872 0)">
						<stop  offset="0" style="stop-color:#AA80F9"/>
						<stop  offset="0.9964" style="stop-color:#6165D7"/>
					</linearGradient>
					<path style="fill:url(#SVGID_00000020375039453835693080000003504471602233558715_);" d="M1502.653,3220.359h-321.416
						c-1.807,0-3.272-1.954-3.272-4.363v-32.989c0-2.41,1.465-4.363,3.272-4.363h321.416c1.807,0,3.272,1.953,3.272,4.363v32.989
						C1505.925,3218.405,1504.46,3220.359,1502.653,3220.359z"/>
				</g>
			</g>
		</g>
		<g>
			<g>
				<g>
					
						<linearGradient id="SVGID_00000052798401991714022950000009001278214763956868_" gradientUnits="userSpaceOnUse" x1="3093.9641" y1="1518.731" x2="3086.0623" y2="1574.1622" gradientTransform="matrix(1 0 0 1 -509.8034 0)">
						<stop  offset="0" style="stop-color:#444B8C"/>
						<stop  offset="0.9964" style="stop-color:#3E4177"/>
					</linearGradient>
					<path style="fill:url(#SVGID_00000052798401991714022950000009001278214763956868_);" d="M2618.115,1544.153
						c-1.611,4.686-5.272,8.615-10.276,10.421l-43.588,15.839c-8.859,3.222-18.67-1.342-21.891-10.201
						c-0.708-1.928-1.026-3.905-1.026-5.833c0-2.806,0.708-5.54,2.002-7.981c1.903-3.636,5.1-6.565,9.25-8.078l43.588-15.839
						c8.859-3.222,18.67,1.342,21.891,10.201C2619.456,1536.538,2619.383,1540.565,2618.115,1544.153z"/>
					
						<linearGradient id="SVGID_00000068673168280609273850000012915454737821638277_" gradientUnits="userSpaceOnUse" x1="3090.9236" y1="1538.8794" x2="3085.8972" y2="1574.1388" gradientTransform="matrix(1 0 0 1 -509.8034 0)">
						<stop  offset="0" style="stop-color:#444B8C"/>
						<stop  offset="0.9964" style="stop-color:#3E4177"/>
					</linearGradient>
					<path style="opacity:0.2;fill:url(#SVGID_00000068673168280609273850000012915454737821638277_);" d="M2618.115,1544.153
						c-1.611,4.686-5.272,8.615-10.276,10.421l-43.588,15.839c-8.859,3.222-18.67-1.342-21.891-10.201
						c-0.708-1.928-1.026-3.905-1.026-5.833c0-2.806,0.708-5.54,2.002-7.981c0.976-0.708,13.765-9.64,22.307,2.783
						c8.883,12.934,14.155,9.664,17.425,7.345C2585.703,1554.623,2607.082,1552.402,2618.115,1544.153z"/>
				</g>
				<g>
					
						<linearGradient id="SVGID_00000183956917133395902380000016244669212034735504_" gradientUnits="userSpaceOnUse" x1="2997.3074" y1="1539.3821" x2="2960.6326" y2="1796.6541" gradientTransform="matrix(1 0 0 1 -509.8034 0)">
						<stop  offset="0" style="stop-color:#AA80F9"/>
						<stop  offset="0.9964" style="stop-color:#6165D7"/>
					</linearGradient>
					<path style="fill:url(#SVGID_00000183956917133395902380000016244669212034735504_);" d="M2382.524,1786.844
						c-1,0-2.015-0.206-2.988-0.641c-3.691-1.652-5.344-5.982-3.692-9.674l75.941-169.698c6.41-14.324,18.013-25.296,32.672-30.895
						l68.736-26.259c3.78-1.443,8.01,0.449,9.452,4.226c1.443,3.778-0.449,8.01-4.226,9.452l-68.736,26.259
						c-11.008,4.205-19.72,12.445-24.533,23.199l-75.941,169.698C2387.994,1785.23,2385.322,1786.844,2382.524,1786.844z"/>
				</g>
			</g>
			<g>
				<g>
					
						<linearGradient id="SVGID_00000070800921726766164700000016791999109801700754_" gradientUnits="userSpaceOnUse" x1="2910.9229" y1="1518.731" x2="2903.021" y2="1574.1622" gradientTransform="matrix(1 0 0 1 -509.8034 0)">
						<stop  offset="0" style="stop-color:#444B8C"/>
						<stop  offset="0.9964" style="stop-color:#3E4177"/>
					</linearGradient>
					<path style="fill:url(#SVGID_00000070800921726766164700000016791999109801700754_);" d="M2435.073,1544.153
						c-1.611,4.686-5.272,8.615-10.276,10.421l-43.588,15.839c-8.859,3.222-18.67-1.342-21.891-10.201
						c-0.708-1.928-1.026-3.905-1.026-5.833c0-2.806,0.708-5.54,2.002-7.981c1.903-3.636,5.1-6.565,9.25-8.078l43.588-15.839
						c8.859-3.222,18.67,1.342,21.891,10.201C2436.415,1536.538,2436.341,1540.565,2435.073,1544.153z"/>
					
						<linearGradient id="SVGID_00000093175737025306023580000007038290326426304156_" gradientUnits="userSpaceOnUse" x1="2907.8823" y1="1538.8794" x2="2902.856" y2="1574.1387" gradientTransform="matrix(1 0 0 1 -509.8034 0)">
						<stop  offset="0" style="stop-color:#444B8C"/>
						<stop  offset="0.9964" style="stop-color:#3E4177"/>
					</linearGradient>
					<path style="opacity:0.2;fill:url(#SVGID_00000093175737025306023580000007038290326426304156_);" d="M2435.073,1544.153
						c-1.611,4.686-5.272,8.615-10.276,10.421l-43.588,15.839c-8.859,3.222-18.67-1.342-21.891-10.201
						c-0.708-1.928-1.026-3.905-1.026-5.833c0-2.806,0.708-5.54,2.002-7.981c0.976-0.708,13.765-9.64,22.307,2.783
						c8.883,12.934,14.155,9.664,17.425,7.345C2402.662,1554.623,2424.041,1552.402,2435.073,1544.153z"/>
				</g>
				<g>
					
						<linearGradient id="SVGID_00000142854742264284612040000004495251093543601807_" gradientUnits="userSpaceOnUse" x1="2814.2659" y1="1539.382" x2="2777.5911" y2="1796.6541" gradientTransform="matrix(1 0 0 1 -509.8034 0)">
						<stop  offset="0" style="stop-color:#AA80F9"/>
						<stop  offset="0.9964" style="stop-color:#6165D7"/>
					</linearGradient>
					<path style="fill:url(#SVGID_00000142854742264284612040000004495251093543601807_);" d="M2199.483,1786.844
						c-1,0-2.015-0.206-2.988-0.641c-3.691-1.652-5.344-5.982-3.692-9.674l75.941-169.698c6.41-14.324,18.013-25.296,32.672-30.895
						l68.736-26.259c3.78-1.443,8.01,0.449,9.452,4.226c1.443,3.778-0.449,8.01-4.226,9.452l-68.736,26.259
						c-11.008,4.205-19.72,12.445-24.533,23.199l-75.941,169.698C2204.952,1785.23,2202.281,1786.844,2199.483,1786.844z"/>
				</g>
			</g>
			<g>
				<g>
					
						<linearGradient id="SVGID_00000116942097079481234430000012644485774497025981_" gradientUnits="userSpaceOnUse" x1="-3461.1797" y1="2010.7758" x2="-3628.0605" y2="1823.6669" gradientTransform="matrix(-1 0 0 1 -1225.3593 0)">
						<stop  offset="0" style="stop-color:#AA80F9"/>
						<stop  offset="0.9964" style="stop-color:#6165D7"/>
					</linearGradient>
					<polygon style="fill:url(#SVGID_00000116942097079481234430000012644485774497025981_);" points="2067.542,2047.612 
						2718.294,2052.261 2734.118,2041.17 2640.051,1716.038 1973.476,1722.479 1957.651,1733.57 					"/>
					
						<linearGradient id="SVGID_00000116219879896354141620000000229311697701113763_" gradientUnits="userSpaceOnUse" x1="-3710.9102" y1="1933.7549" x2="-2995.2256" y2="1933.7549" gradientTransform="matrix(-1.0584 0.0102 0.0097 1 -1229.6718 -6.6378)">
						<stop  offset="0" style="stop-color:#AA80F9"/>
						<stop  offset="0.9964" style="stop-color:#6165D7"/>
					</linearGradient>
					<polygon style="fill:url(#SVGID_00000116219879896354141620000000229311697701113763_);" points="2051.719,2058.703 
						2718.294,2052.261 2624.227,1727.129 1957.651,1733.57 					"/>
					
						<linearGradient id="SVGID_00000092416233247750219310000011881923682296907918_" gradientUnits="userSpaceOnUse" x1="-3776.8218" y1="2414.4202" x2="-2968.5784" y2="2887.5374" gradientTransform="matrix(-1 0 0 1 -1225.3593 0)">
						<stop  offset="0" style="stop-color:#AA80F9"/>
						<stop  offset="0.9964" style="stop-color:#6165D7"/>
					</linearGradient>
					<path style="fill:url(#SVGID_00000092416233247750219310000011881923682296907918_);" d="M2309.036,3193.045
						c0,0-75.22-931.177-196.534-1306.814h342.829l107.266,1306.814H2309.036z"/>
					
						<linearGradient id="SVGID_00000163061023835472308920000012867848105835441824_" gradientUnits="userSpaceOnUse" x1="-3802.3894" y1="2542.866" x2="-3680.6902" y2="2542.866" gradientTransform="matrix(-1 0 0 1 -1225.3593 0)">
						<stop  offset="0" style="stop-color:#AA80F9"/>
						<stop  offset="0.9964" style="stop-color:#6165D7"/>
					</linearGradient>
					<polygon style="fill:url(#SVGID_00000163061023835472308920000012867848105835441824_);" points="2577.03,2015.923 
						2455.331,1886.23 2477.159,3178.643 2472.976,3199.502 2562.596,3193.045 					"/>
					
						<linearGradient id="SVGID_00000078751325957576462310000011199555433648271522_" gradientUnits="userSpaceOnUse" x1="-3767.301" y1="3369.1711" x2="-3671.8376" y2="3206.0156" gradientTransform="matrix(-1 0 0 1 -1225.3593 0)">
						<stop  offset="0" style="stop-color:#AA80F9"/>
						<stop  offset="0.9964" style="stop-color:#6165D7"/>
					</linearGradient>
					<path style="fill:url(#SVGID_00000078751325957576462310000011199555433648271522_);" d="M2281.958,3220.359h321.416
						c1.807,0,3.272-1.954,3.272-4.363v-32.989c0-2.41-1.465-4.363-3.272-4.363h-321.416c-1.807,0-3.272,1.953-3.272,4.363v32.989
						C2278.686,3218.405,2280.151,3220.359,2281.958,3220.359z"/>
				</g>
			</g>
		</g>
		<g>
			
				<linearGradient id="SVGID_00000124153145551949754010000009094831939958257285_" gradientUnits="userSpaceOnUse" x1="4284.2129" y1="794.4803" x2="4773.7676" y2="1702.4595" gradientTransform="matrix(-1 0 0 1 6090.1221 0)">
				<stop  offset="0" style="stop-color:#FF9085"/>
				<stop  offset="1" style="stop-color:#FB6FBB"/>
			</linearGradient>
			<path style="fill:url(#SVGID_00000124153145551949754010000009094831939958257285_);" d="M1314.866,1043.634
				c0,161.066,156.807,292.024,353.141,292.51c199.617,0.494,363.904-133.648,363.904-299.623s-164.287-296.858-363.904-292.403
				C1471.673,748.498,1314.866,882.567,1314.866,1043.634z"/>
			
				<linearGradient id="SVGID_00000011747810250826184090000001279121106968579771_" gradientUnits="userSpaceOnUse" x1="4284.2129" y1="794.4803" x2="4773.7676" y2="1702.4595" gradientTransform="matrix(-1 0 0 1 6090.1221 0)">
				<stop  offset="0" style="stop-color:#FF9085"/>
				<stop  offset="1" style="stop-color:#FB6FBB"/>
			</linearGradient>
			<path style="fill:url(#SVGID_00000011747810250826184090000001279121106968579771_);" d="M1314.866,1043.634
				c0,161.066,156.807,292.024,353.141,292.51c199.617,0.494,363.904-133.648,363.904-299.623s-164.287-296.858-363.904-292.403
				C1471.673,748.498,1314.866,882.567,1314.866,1043.634z"/>
			<g style="opacity:0.2;">
				
					<linearGradient id="SVGID_00000175303768058912127680000010788352170364066736_" gradientUnits="userSpaceOnUse" x1="4148.583" y1="846.2482" x2="4630.2383" y2="1812.8151" gradientTransform="matrix(-1 0 0 1 6090.1221 0)">
					<stop  offset="0" style="stop-color:#FF9085"/>
					<stop  offset="1" style="stop-color:#FB6FBB"/>
				</linearGradient>
				<path style="fill:url(#SVGID_00000175303768058912127680000010788352170364066736_);" d="M1581.296,1260.803
					c43.005-87.286-0.47-168.518,57.71-225.396c59.398-58.069,137.027-5.445,221.139-53.417
					c32.677-18.637,69.113-54.058,96.267-126.473c47.307,49.682,75.499,112.445,75.499,181.003
					c0,165.975-164.287,300.117-363.904,299.623c-45.265-0.112-88.403-7.153-127.979-19.861
					C1559.527,1297.79,1572.453,1278.752,1581.296,1260.803z"/>
			</g>
			
				<linearGradient id="SVGID_00000023262142318296938370000004925818565820653453_" gradientUnits="userSpaceOnUse" x1="4401.8354" y1="799.2147" x2="4860.062" y2="1649.0886" gradientTransform="matrix(-1 0 0 1 6090.1221 0)">
				<stop  offset="0" style="stop-color:#FF9085"/>
				<stop  offset="1" style="stop-color:#FB6FBB"/>
			</linearGradient>
			<polygon style="fill:url(#SVGID_00000023262142318296938370000004925818565820653453_);" points="1508.745,1294.731 
				1326.259,1362.926 1385.485,1198.3 			"/>
		</g>
		
			<linearGradient id="SVGID_00000093894867624906590410000006034961485781431485_" gradientUnits="userSpaceOnUse" x1="1979.9821" y1="545.9561" x2="2566.5034" y2="1633.7797">
			<stop  offset="0" style="stop-color:#FFC444"/>
			<stop  offset="0.9964" style="stop-color:#F36F56"/>
		</linearGradient>
		<path style="fill:url(#SVGID_00000093894867624906590410000006034961485781431485_);" d="M2568.287,844.459
			c0,192.969-187.866,349.866-423.088,350.448c-239.155,0.592-435.982-160.12-435.982-358.97s196.827-355.657,435.982-350.32
			C2380.421,490.866,2568.287,651.491,2568.287,844.459z"/>
		<g>
			
				<linearGradient id="SVGID_00000052106595629984374060000018136838682835165864_" gradientUnits="userSpaceOnUse" x1="1979.9821" y1="545.9561" x2="2566.5034" y2="1633.7797">
				<stop  offset="0" style="stop-color:#FFC444"/>
				<stop  offset="0.9964" style="stop-color:#F36F56"/>
			</linearGradient>
			<path style="fill:url(#SVGID_00000052106595629984374060000018136838682835165864_);" d="M2568.287,844.459
				c0,192.969-187.866,349.866-423.088,350.448c-239.155,0.592-435.982-160.12-435.982-358.97s196.827-355.657,435.982-350.32
				C2380.421,490.866,2568.287,651.491,2568.287,844.459z"/>
			
				<linearGradient id="SVGID_00000008849728037212987110000007950400777026564279_" gradientUnits="userSpaceOnUse" x1="2120.9026" y1="551.6284" x2="2669.8899" y2="1569.8373">
				<stop  offset="0" style="stop-color:#FFC444"/>
				<stop  offset="0.9964" style="stop-color:#F36F56"/>
			</linearGradient>
			<polygon style="fill:url(#SVGID_00000008849728037212987110000007950400777026564279_);" points="2336.006,1145.292 
				2554.637,1226.994 2483.68,1029.761 			"/>
			<polygon style="fill:#FFFFFF;" points="2285.294,763.889 2169.34,763.889 2229.074,609.986 2074.468,609.986 2004.192,873.332 
				2109.606,873.332 2093.203,1100.296 			"/>
			<g style="opacity:0.2;">
				
					<linearGradient id="SVGID_00000175308365201949926120000013577321428027820729_" gradientUnits="userSpaceOnUse" x1="1817.4877" y1="607.9775" x2="2394.5452" y2="1765.9935">
					<stop  offset="0" style="stop-color:#FFC444"/>
					<stop  offset="0.9964" style="stop-color:#F36F56"/>
				</linearGradient>
				<path style="fill:url(#SVGID_00000175308365201949926120000013577321428027820729_);" d="M2249.085,1104.644
					c-51.523-104.575,0.564-201.896-69.141-270.04c-71.163-69.571-164.168-6.523-264.94-63.997
					c-39.149-22.328-82.802-64.765-115.335-151.524c-56.677,59.523-90.453,134.717-90.453,216.855
					c0,198.85,196.827,359.562,435.982,358.97c54.23-0.134,105.913-8.57,153.328-23.794
					C2275.165,1148.957,2259.679,1126.148,2249.085,1104.644z"/>
			</g>
		</g>
	</g>
</g>
</svg>
